HIERARCHY
ROOT hip
{
  OFFSET 0 0 0
  CHANNELS 6 Xposition Yposition Zposition Zrotation Yrotation Xrotation
  JOINT abdomen
  {
    OFFSET 0 20.6881 -0.73152
    CHANNELS 3 Zrotation Xrotation Yrotation
    JOINT chest
    {
      OFFSET 0 11.7043 -0.48768
      CHANNELS 3 Zrotation Xrotation Yrotation
      JOINT neck
      {
        OFFSET 0 22.1894 -2.19456
        CHANNELS 3 Zrotation Xrotation Yrotation
        JOINT head
        {
          OFFSET -0.24384 7.07133 1.2192
          CHANNELS 3 Zrotation Xrotation Yrotation
          JOINT leftEye
          {
            OFFSET 4.14528 8.04674 8.04672
            CHANNELS 3 Zrotation Xrotation Yrotation
            End Site
            {
              OFFSET 1 0 0
            }
          }
          JOINT rightEye
          {
            OFFSET -3.6576 8.04674 8.04672
            CHANNELS 3 Zrotation Xrotation Yrotation
            End Site
            {
              OFFSET 1 0 0
            }
          }
        }
      }
      JOINT rCollar
      {
        OFFSET -2.68224 19.2634 -4.8768
        CHANNELS 3 Zrotation Xrotation Yrotation
        JOINT rShldr
        {
          OFFSET -8.77824 -1.95073 1.46304
          CHANNELS 3 Zrotation Xrotation Yrotation
          JOINT rForeArm
          {
            OFFSET -28.1742 -1.7115 0.48768
            CHANNELS 3 Zrotation Xrotation Yrotation
            JOINT rHand
            {
              OFFSET -22.5879 0.773209 7.07136
              CHANNELS 3 Zrotation Xrotation Yrotation
              JOINT rThumb1
              {
                OFFSET -1.2192 -0.487915 3.41376
                CHANNELS 3 Zrotation Xrotation Yrotation
                JOINT rThumb2
                {
                  OFFSET -3.37035 -0.52449 3.41376
                  CHANNELS 3 Zrotation Xrotation Yrotation
                  End Site
                  {
                    OFFSET -1.78271 -1.18214 1.43049
                  }
                }
              }
              JOINT rIndex1
              {
                OFFSET -7.75947 0.938293 5.60832
                CHANNELS 3 Zrotation Xrotation Yrotation
                JOINT rIndex2
                {
                  OFFSET -2.54057 -0.884171 1.56538
                  CHANNELS 3 Zrotation Xrotation Yrotation
                  End Site
                  {
                    OFFSET -1.62519 -0.234802 1.16502
                  }
                }
              }
              JOINT rMid1
              {
                OFFSET -8.24714 1.18213 3.41376
                CHANNELS 3 Zrotation Xrotation Yrotation
                JOINT rMid2
                {
                  OFFSET -3.10165 -0.590103 1.0647
                  CHANNELS 3 Zrotation Xrotation Yrotation
                  End Site
                  {
                    OFFSET -2.48547 -0.328903 0.83742
                  }
                }
              }
              JOINT rRing1
              {
                OFFSET -8.82822 0.546677 1.51678
                CHANNELS 3 Zrotation Xrotation Yrotation
                JOINT rRing2
                {
                  OFFSET -2.60934 -0.819778 -0.0198488
                  CHANNELS 3 Zrotation Xrotation Yrotation
                  End Site
                  {
                    OFFSET -2.33842 -0.294052 0.168128
                  }
                }
              }
              JOINT rPinky1
              {
                OFFSET -8.27202 -0.0477905 -0.4584
                CHANNELS 3 Zrotation Xrotation Yrotation
                JOINT rPinky2
                {
                  OFFSET -1.82734 -0.647385 -0.700984
                  CHANNELS 3 Zrotation Xrotation Yrotation
                  End Site
                  {
                    OFFSET -1.69225 -0.51767 -0.607171
                  }
                }
              }
            }
          }
        }
      }
      JOINT lCollar
      {
        OFFSET 2.68224 19.2634 -4.8768
        CHANNELS 3 Zrotation Xrotation Yrotation
        JOINT lShldr
        {
          OFFSET 8.77824 -1.95073 1.46304
          CHANNELS 3 Zrotation Xrotation Yrotation
          JOINT lForeArm
          {
            OFFSET 28.1742 -1.7115 0.48768
            CHANNELS 3 Zrotation Xrotation Yrotation
            JOINT lHand
            {
              OFFSET 22.5879 0.773209 7.07136
              CHANNELS 3 Zrotation Xrotation Yrotation
              JOINT lThumb1
              {
                OFFSET 1.2192 -0.487915 3.41376
                CHANNELS 3 Zrotation Xrotation Yrotation
                JOINT lThumb2
                {
                  OFFSET 3.37035 -0.52449 3.41376
                  CHANNELS 3 Zrotation Xrotation Yrotation
                  End Site
                  {
                    OFFSET 1.78271 -1.18214 1.43049
                  }
                }
              }
              JOINT lIndex1
              {
                OFFSET 7.75947 0.938293 5.60832
                CHANNELS 3 Zrotation Xrotation Yrotation
                JOINT lIndex2
                {
                  OFFSET 2.54057 -0.884171 1.56538
                  CHANNELS 3 Zrotation Xrotation Yrotation
                  End Site
                  {
                    OFFSET 1.62519 -0.234802 1.16502
                  }
                }
              }
              JOINT lMid1
              {
                OFFSET 8.24714 1.18213 3.41376
                CHANNELS 3 Zrotation Xrotation Yrotation
                JOINT lMid2
                {
                  OFFSET 3.10165 -0.590103 1.0647
                  CHANNELS 3 Zrotation Xrotation Yrotation
                  End Site
                  {
                    OFFSET 2.48547 -0.328903 0.83742
                  }
                }
              }
              JOINT lRing1
              {
                OFFSET 8.82822 0.546677 1.51678
                CHANNELS 3 Zrotation Xrotation Yrotation
                JOINT lRing2
                {
                  OFFSET 2.60934 -0.819778 -0.0198488
                  CHANNELS 3 Zrotation Xrotation Yrotation
                  End Site
                  {
                    OFFSET 2.33842 -0.294052 0.168128
                  }
                }
              }
              JOINT lPinky1
              {
                OFFSET 8.27202 -0.0477905 -0.4584
                CHANNELS 3 Zrotation Xrotation Yrotation
                JOINT lPinky2
                {
                  OFFSET 1.82734 -0.647385 -0.700984
                  CHANNELS 3 Zrotation Xrotation Yrotation
                  End Site
                  {
                    OFFSET 1.69225 -0.51767 -0.607171
                  }
                }
              }
            }
          }
        }
      }
    }
  }
  JOINT rButtock
  {
    OFFSET -8.77824 4.35084 1.2192
    CHANNELS 3 Zrotation Xrotation Yrotation
    JOINT rThigh
    {
      OFFSET 0 -1.70687 -2.19456
      CHANNELS 3 Zrotation Xrotation Yrotation
      JOINT rShin
      {
        OFFSET 0 -36.8199 0.73152
        CHANNELS 3 Zrotation Xrotation Yrotation
        JOINT rFoot
        {
          OFFSET 0.73152 -45.1104 -5.12064
          CHANNELS 3 Zrotation Xrotation Yrotation
          End Site
          {
            OFFSET -1.1221 -3.69964 12.103
          }
        }
      }
    }
  }
  JOINT lButtock
  {
    OFFSET 8.77824 4.35084 1.2192
    CHANNELS 3 Zrotation Xrotation Yrotation
    JOINT lThigh
    {
      OFFSET 0 -1.70687 -2.19456
      CHANNELS 3 Zrotation Xrotation Yrotation
      JOINT lShin
      {
        OFFSET 0 -36.8199 0.73152
        CHANNELS 3 Zrotation Xrotation Yrotation
        JOINT lFoot
        {
          OFFSET -0.73152 -45.1104 -5.12064
          CHANNELS 3 Zrotation Xrotation Yrotation
          End Site
          {
            OFFSET 1.1221 -3.69964 12.103
          }
        }
      }
    }
  }
}
MOTION
Frames:	4
Frame Time:	0.03333
5.960513349269487 39.87843854461838 56.53643443272534 -68.25638580322266 54.90563201904297 -125.37931823730469 5.431202411651611 36.33631896972656 -10.239078521728516 8.801806449890137 -13.88923454284668 -1.4927167892456055 -9.509076118469238 19.175371170043945 -15.734630584716797 28.942184448242188 -28.494287490844727 -25.83661651611328 1.6291190385818481 2.6944925785064697 0.06923592835664749 -1.651551365852356 2.235067129135132 -1.0145397186279297 0.41851189732551575 0.2578837275505066 -0.7982014417648315 49.84465408325195 0.28084105253219604 -11.855220794677734 -28.837112426757812 -33.08969497680664 70.46686553955078 -1.9588823318481445 -21.814403533935547 -4.271204471588135 -1.3310589790344238 -2.277407646179199 0.12314409017562866 -0.6385369300842285 -0.574211061000824 0.5946041345596313 0.10626035928726196 -1.7686448097229004 0.5664103031158447 5.4991912841796875 4.586458683013916 3.546516180038452 -0.030234748497605324 -0.7986902594566345 -0.6538520455360413 3.2554636001586914 0.6143668293952942 2.593437910079956 0.10247916728258133 -0.35118868947029114 -0.304458886384964 11.149869918823242 1.840872049331665 -2.201817512512207 -2.1262636184692383 -1.3239102363586426 1.3125717639923096 1.939527988433838 0.17860400676727295 -0.5953320860862732 0.7786552906036377 0.9974638819694519 0.6911379098892212 -26.320636749267578 42.74907302856445 -49.90315246582031 29.33257293701172 -40.83865737915039 -83.51551055908203 -1.1434102058410645 -30.323101043701172 2.6415278911590576 -0.34781116247177124 2.0035388469696045 0.25039753317832947 0.5694419741630554 -1.0311434268951416 -2.2643368244171143 1.7318158149719238 -0.009393278509378433 2.0478248596191406 -7.420583248138428 5.502281188964844 -2.459817886352539 0.790882408618927 0.3416769206523895 -0.7707064151763916 -2.1024739742279053 0.5622261762619019 -0.08825690299272537 0.6020805835723877 0.6516652703285217 1.5047675371170044 -9.373069763183594 -0.23743684589862823 1.6224459409713745 -0.4218827188014984 1.348151445388794 -0.33887481689453125 -2.7504169940948486 0.8517308235168457 1.167534589767456 -0.6892743110656738 -0.33534181118011475 -1.2344813346862793 -93.53874206542969 -56.5754280090332 -68.64944458007812 -161.1623992919922 81.50480651855469 160.8347930908203 5.102260112762451 -4.371184349060059 10.951163291931152 -1.0014039278030396 0.7601864337921143 1.7279003858566284 56.127708435058594 -39.44929122924805 33.700164794921875 0.9813903570175171 65.72443389892578 -2.873263359069824 3.970576047897339 -20.671855926513672 18.750829696655273
6.127562700895074 39.37460281030322 56.841701306664305 -69.51976013183594 56.03265380859375 -126.72732543945312 5.568297863006592 35.83060836791992 -10.128569602966309 8.806800842285156 -14.004753112792969 -1.446934700012207 -9.336584091186523 19.409076690673828 -15.744620323181152 28.928653717041016 -28.74995231628418 -25.57478904724121 1.5996633768081665 2.527292251586914 0.07659517973661423 -1.6822446584701538 2.2490756511688232 -1.0182437896728516 0.3114778399467468 0.2840175926685333 -0.753233790397644 50.19989776611328 0.6391689777374268 -11.811659812927246 -29.05242919921875 -33.6683235168457 71.39024353027344 -1.902207374572754 -21.766103744506836 -4.247611045837402 -1.3487567901611328 -2.2501015663146973 0.05031333118677139 -0.6900222301483154 -0.6111080050468445 0.5211105346679688 0.20181690156459808 -1.6773111820220947 0.4762110710144043 5.58103609085083 4.736988544464111 3.586533784866333 -0.064761221408844 -0.8381451368331909 -0.556114912033081 3.36478328704834 0.6476489305496216 2.3850057125091553 0.15675067901611328 -0.3043350577354431 -0.2690631151199341 10.895682334899902 1.9710443019866943 -2.212116003036499 -2.0914466381073 -1.256179690361023 1.3974336385726929 1.74260413646698 0.19451692700386047 -0.6144257187843323 0.6435192823410034 0.8995350003242493 0.7334693670272827 -26.084102630615234 43.223384857177734 -50.144710540771484 29.20785140991211 -40.97352600097656 -83.70589447021484 -1.0007140636444092 -30.0274600982666 2.6635565757751465 -0.36294370889663696 2.026005506515503 0.20886191725730896 0.5182600617408752 -0.9203785061836243 -2.3163414001464844 1.631026268005371 0.1878967136144638 1.9628396034240723 -7.421474933624268 5.402709007263184 -2.280034303665161 0.8199995160102844 0.2399720996618271 -0.7321329712867737 -2.1541426181793213 0.6316004991531372 -0.09681772440671921 0.6111565232276917 0.619292676448822 1.4516973495483398 -9.476059913635254 -0.18588456511497498 1.6221034526824951 -0.3135758638381958 1.4933314323425293 -0.3933836817741394 -2.5994279384613037 0.9036304354667664 1.199089527130127 -0.6618340611457825 -0.4754107594490051 -1.3115382194519043 -91.9456787109375 -56.390533447265625 -66.98503112792969 -160.56080627441406 82.04438018798828 160.3734130859375 5.1947021484375 -4.793453693389893 10.829366683959961 -0.8855798244476318 0.8420590758323669 1.7255918979644775 57.424888610839844 -40.40803527832031 35.29383087158203 1.1353622674942017 67.50906372070312 -3.1029677391052246 3.6522369384765625 -20.70118522644043 18.073938369750977
6.329498737810381 38.840116602087626 57.0946439156408 -70.7383041381836 57.08092498779297 -128.15191650390625 5.622960567474365 35.332008361816406 -10.075141906738281 8.809822082519531 -14.087637901306152 -1.4344525337219238 -9.184547424316406 19.63626480102539 -15.766493797302246 28.906400680541992 -29.009157180786133 -25.38433837890625 1.6037651300430298 2.4035887718200684 0.07378537952899933 -1.6873289346694946 2.2382681369781494 -1.0111989974975586 0.2097644954919815 0.3029118776321411 -0.6965845823287964 50.48624801635742 0.9088973999023438 -11.595842361450195 -29.20187759399414 -34.30624008178711 72.43697357177734 -1.8892349004745483 -21.715923309326172 -4.284448146820068 -1.3563106060028076 -2.1823997497558594 -0.027948876842856407 -0.7155726552009583 -0.6122967004776001 0.48642897605895996 0.2745516896247864 -1.5996828079223633 0.3796023428440094 5.6610002517700195 4.848553657531738 3.6079776287078857 -0.08738110959529877 -0.8958783149719238 -0.48378631472587585 3.451653480529785 0.673743724822998 2.232146739959717 0.2493405044078827 -0.2567683160305023 -0.2259342074394226 10.644635200500488 2.09397029876709 -2.2016026973724365 -2.068493604660034 -1.1935290098190308 1.4739691019058228 1.5396238565444946 0.2496589571237564 -0.6302974224090576 0.49330925941467285 0.8034297823905945 0.767670214176178 -25.627946853637695 43.78364181518555 -50.664981842041016 29.037342071533203 -41.136226654052734 -84.12666320800781 -0.8507402539253235 -29.886859893798828 2.71667218208313 -0.3914206027984619 2.0158369541168213 0.21652647852897644 0.4833291172981262 -0.8317996859550476 -2.3428101539611816 1.5302376747131348 0.38637208938598633 1.865780234336853 -7.4184889793396 5.344479084014893 -2.1178970336914062 0.8196023106575012 0.14329449832439423 -0.7170206308364868 -2.1954424381256104 0.677409827709198 -0.10018935799598694 0.6310926079750061 0.5643470883369446 1.410871982574463 -9.595312118530273 -0.15048304200172424 1.6313756704330444 -0.22334706783294678 1.593357801437378 -0.41324517130851746 -2.4635274410247803 0.9458226561546326 1.199269413948059 -0.6162155866622925 -0.6078006625175476 -1.3765943050384521 -90.7681884765625 -56.32955551147461 -65.83002471923828 -160.3933563232422 82.40665435791016 160.3327178955078 5.324586391448975 -5.092726707458496 10.791482925415039 -0.7591779232025146 0.8667012453079224 1.7419188022613525 58.435367584228516 -41.20248031616211 36.69158172607422 1.3130377531051636 69.20750427246094 -3.3382809162139893 3.407834053039551 -20.781558990478516 17.529020309448242
6.542952501378741 38.28210039218134 57.309065004750366 -72.07569122314453 58.10417175292969 -129.52337646484375 5.650914192199707 34.84146499633789 -10.056697845458984 8.836726188659668 -14.143117904663086 -1.4284132719039917 -9.055429458618164 19.851003646850586 -15.831605911254883 28.856494903564453 -29.249013900756836 -25.276700973510742 1.6146013736724854 2.288004159927368 0.06661684811115265 -1.6825370788574219 2.2215192317962646 -1.0048538446426392 0.10676148533821106 0.3083959221839905 -0.6344565153121948 50.751399993896484 1.1720303297042847 -11.290234565734863 -29.291257858276367 -35.016883850097656 73.64520263671875 -1.887131690979004 -21.753862380981445 -4.349862098693848 -1.3403890132904053 -2.0856075286865234 -0.11519505828619003 -0.7324739098548889 -0.5893100500106812 0.4653427302837372 0.348951131105423 -1.5315877199172974 0.2537730932235718 5.731536388397217 4.92765474319458 3.598555326461792 -0.08989954739809036 -0.9592587351799011 -0.4356013834476471 3.5254714488983154 0.6831920146942139 2.1030890941619873 0.3379979431629181 -0.22703538835048676 -0.1789487898349762 10.407918930053711 2.2078123092651367 -2.186385154724121 -2.068859577178955 -1.1380236148834229 1.5204085111618042 1.3397645950317383 0.3100062608718872 -0.6408566832542419 0.32229453325271606 0.7236843109130859 0.7951940298080444 -24.99338722229004 44.368892669677734 -51.41780090332031 28.829919815063477 -41.30879211425781 -84.61335754394531 -0.7043678760528564 -29.73200225830078 2.762326717376709 -0.4072665274143219 1.9779614210128784 0.22473236918449402 0.44031721353530884 -0.7444924712181091 -2.352247714996338 1.4264544248580933 0.5734278559684753 1.7641922235488892 -7.432503700256348 5.296612739562988 -1.9585418701171875 0.7885259389877319 0.05062947794795036 -0.7029757499694824 -2.2367637157440186 0.7177655696868896 -0.08560534566640854 0.6567097306251526 0.49285224080085754 1.381814956665039 -9.733575820922852 -0.12707185745239258 1.635862946510315 -0.14973703026771545 1.6442784070968628 -0.406429648399353 -2.33335280418396 0.967014729976654 1.1995564699172974 -0.5460875034332275 -0.7266319394111633 -1.41995370388031 -89.7755355834961 -56.34278106689453 -64.9097671508789 -160.3093719482422 82.69200897216797 160.35958862304688 5.451442718505859 -5.333671569824219 10.770018577575684 -0.6312323808670044 0.8756911754608154 1.765910267829895 59.290000915527344 -41.8912467956543 37.996219635009766 1.5572551488876343 70.87913513183594 -3.6214027404785156 3.1901957988739014 -20.87415313720703 17.037660598754883
